<?xml version="1.0" encoding="UTF-8" standalone="no"?>
<svg
   xmlns:dc="http://purl.org/dc/elements/1.1/"
   xmlns:cc="http://creativecommons.org/ns#"
   xmlns:rdf="http://www.w3.org/1999/02/22-rdf-syntax-ns#"
   xmlns:svg="http://www.w3.org/2000/svg"
   xmlns="http://www.w3.org/2000/svg"
   viewBox="0 0 1333.3333 1333.3333"
   height="1333.3333"
   width="1333.3333"
   xml:space="preserve"
   id="svg2"
   version="1.1"><metadata
     id="metadata8"><rdf:RDF><cc:Work
         rdf:about=""><dc:format>image/svg+xml</dc:format><dc:type
           rdf:resource="http://purl.org/dc/dcmitype/StillImage" /></cc:Work></rdf:RDF></metadata><defs
     id="defs6"><clipPath
       id="clipPath26"
       clipPathUnits="userSpaceOnUse"><path
         id="path24"
         d="M 0,1000 H 1000 V 0 H 0 Z" /></clipPath></defs><g
     transform="matrix(1.3333333,0,0,-1.3333333,0,1333.3333)"
     id="g10"><g
       transform="translate(288.7695,240.961)"
       id="g12"><path
         id="path14"
         style="fill:#4c4c4c;fill-opacity:1;fill-rule:nonzero;stroke:none"
         d="M 0,0 -41.441,71.554 H -32 L 4.671,7.851 41.243,71.554 h 9.442 L 9.342,0 Z" /></g><g
       transform="translate(374.2363,326.9253)"
       id="g16"><path
         id="path18"
         style="fill:#4c4c4c;fill-opacity:1;fill-rule:nonzero;stroke:none"
         d="m 0,0 3.478,13.813 h 7.851 L 7.95,0 Z m -24.945,-85.964 v 71.554 h 65.293 v -8.05 h -57.244 v -23.653 h 46.014 v -8.149 h -46.014 v -23.653 h 57.244 v -8.049 z" /></g><g
       id="g20"><g
         clip-path="url(#clipPath26)"
         id="g22"><g
           transform="translate(437.0439,275.7441)"
           id="g28"><path
             id="path30"
             style="fill:#4c4c4c;fill-opacity:1;fill-rule:nonzero;stroke:none"
             d="m 0,0 h 47.703 c 1.059,0 1.953,0.363 2.683,1.093 0.728,0.728 1.093,1.623 1.093,2.683 v 20.97 c 0,1.059 -0.365,1.97 -1.093,2.733 -0.73,0.761 -1.624,1.143 -2.683,1.143 H 0 c -1.061,0 -1.972,-0.382 -2.733,-1.143 -0.762,-0.763 -1.143,-1.674 -1.143,-2.733 V 3.776 c 0,-1.06 0.381,-1.955 1.143,-2.683 C -1.972,0.363 -1.061,0 0,0 m -11.926,-34.783 v 71.454 h 59.629 c 3.312,0 6.127,-1.177 8.447,-3.527 2.319,-2.353 3.478,-5.153 3.478,-8.398 V 3.776 c 0,-3.247 -1.159,-6.046 -3.478,-8.397 -2.32,-2.353 -5.135,-3.528 -8.447,-3.528 H 36.771 L 59.23,-34.684 v -0.099 H 48.597 L 26.236,-8.149 -3.876,-8.05 v -26.733 z" /></g><g
           transform="translate(535.4297,240.961)"
           id="g32"><path
             id="path34"
             style="fill:#4c4c4c;fill-opacity:1;fill-rule:nonzero;stroke:none"
             d="m 0,0 v 63.504 h -31.802 v 8.05 h 71.555 v -8.05 H 8.05 L 8.05,0 Z" /></g><path
           id="path36"
           style="fill:#4c4c4c;fill-opacity:1;fill-rule:nonzero;stroke:none"
           d="m 582.237,312.515 h 8.149 v -71.554 h -8.149 z" /><g
           transform="translate(615.8271,240.961)"
           id="g38"><path
             id="path40"
             style="fill:#4c4c4c;fill-opacity:1;fill-rule:nonzero;stroke:none"
             d="m 0,0 c -3.313,0 -6.129,1.158 -8.447,3.479 -2.321,2.318 -3.479,5.133 -3.479,8.447 v 47.702 c 0,3.312 1.158,6.128 3.479,8.448 2.318,2.318 5.134,3.478 8.447,3.478 h 59.43 v -8.05 H 0 c -1.061,0 -1.973,-0.382 -2.733,-1.143 -0.763,-0.762 -1.143,-1.674 -1.143,-2.733 V 11.926 c 0,-1.061 0.38,-1.972 1.143,-2.733 C -1.973,8.43 -1.061,8.05 0,8.05 H 59.43 V 0 Z" /></g><g
           transform="translate(685.7891,240.961)"
           id="g42"><path
             id="path44"
             style="fill:#4c4c4c;fill-opacity:1;fill-rule:nonzero;stroke:none"
             d="m 0,0 v 71.554 h 65.293 v -8.05 H 8.05 V 39.852 H 54.063 V 31.703 H 8.05 V 8.05 H 65.293 V 0 Z" /></g><g
           transform="translate(324.2148,178.022)"
           id="g46"><path
             id="path48"
             style="fill:#000000;fill-opacity:1;fill-rule:nonzero;stroke:none"
             d="m 0,0 c -2.101,1.171 -3.756,2.788 -4.965,4.851 -1.21,2.062 -1.814,4.379 -1.814,6.951 0,2.572 0.604,4.889 1.814,6.951 1.209,2.062 2.864,3.679 4.965,4.851 2.101,1.17 4.462,1.757 7.085,1.757 1.935,0 3.718,-0.313 5.348,-0.936 1.629,-0.624 3.016,-1.547 4.163,-2.769 l -1.223,-1.26 c -2.139,2.113 -4.876,3.169 -8.212,3.169 -2.24,0 -4.277,-0.509 -6.11,-1.527 -1.834,-1.019 -3.273,-2.426 -4.317,-4.221 -1.044,-1.795 -1.565,-3.8 -1.565,-6.015 0,-2.216 0.521,-4.22 1.565,-6.015 1.044,-1.796 2.483,-3.203 4.317,-4.221 1.833,-1.019 3.87,-1.528 6.11,-1.528 3.311,0 6.048,1.069 8.212,3.209 L 16.596,1.986 C 15.449,0.764 14.056,-0.166 12.413,-0.802 10.771,-1.439 8.995,-1.757 7.085,-1.757 4.462,-1.757 2.101,-1.171 0,0" /></g><g
           transform="translate(364.1846,179.5879)"
           id="g50"><path
             id="path52"
             style="fill:#000000;fill-opacity:1;fill-rule:nonzero;stroke:none"
             d="m 0,0 c 1.808,1.018 3.233,2.425 4.277,4.221 1.044,1.795 1.567,3.8 1.567,6.015 0,2.215 -0.523,4.221 -1.567,6.015 C 3.233,18.046 1.808,19.453 0,20.472 -1.809,21.49 -3.833,22 -6.073,22 c -2.24,0 -4.272,-0.51 -6.092,-1.528 -1.82,-1.019 -3.253,-2.426 -4.297,-4.221 -1.044,-1.794 -1.565,-3.8 -1.565,-6.015 0,-2.215 0.521,-4.22 1.565,-6.015 1.044,-1.796 2.477,-3.203 4.297,-4.221 1.82,-1.019 3.852,-1.528 6.092,-1.528 2.24,0 4.264,0.509 6.073,1.528 m -13.177,-1.547 c -2.114,1.184 -3.775,2.807 -4.984,4.87 -1.21,2.062 -1.815,4.366 -1.815,6.913 0,2.546 0.605,4.85 1.815,6.913 1.209,2.062 2.87,3.686 4.984,4.87 2.114,1.184 4.481,1.776 7.104,1.776 2.622,0 4.99,-0.587 7.104,-1.757 2.114,-1.172 3.775,-2.788 4.985,-4.851 1.209,-2.062 1.813,-4.379 1.813,-6.951 0,-2.572 -0.604,-4.889 -1.813,-6.951 -1.21,-2.063 -2.871,-3.68 -4.985,-4.851 -2.114,-1.171 -4.482,-1.757 -7.104,-1.757 -2.623,0 -4.99,0.592 -7.104,1.776" /></g><g
           transform="translate(400.5439,203.1919)"
           id="g54"><path
             id="path56"
             style="fill:#000000;fill-opacity:1;fill-rule:nonzero;stroke:none"
             d="m 0,0 v -26.736 h -1.604 l -18.218,23.222 v -23.222 h -1.949 V 0 h 1.643 L -1.947,-23.222 V 0 Z" /></g><g
           transform="translate(411.2959,177.2774)"
           id="g58"><path
             id="path60"
             style="fill:#000000;fill-opacity:1;fill-rule:nonzero;stroke:none"
             d="m 0,0 c -1.77,0.674 -3.15,1.547 -4.144,2.616 l 0.878,1.451 C -2.324,3.075 -1.057,2.266 0.535,1.642 2.126,1.018 3.801,0.707 5.558,0.707 c 2.546,0 4.468,0.483 5.766,1.451 1.299,0.967 1.948,2.228 1.948,3.781 0,1.197 -0.343,2.151 -1.031,2.865 -0.687,0.712 -1.541,1.26 -2.558,1.642 -1.02,0.382 -2.395,0.776 -4.125,1.184 -1.961,0.483 -3.534,0.954 -4.717,1.413 -1.185,0.458 -2.191,1.165 -3.018,2.12 -0.828,0.955 -1.241,2.234 -1.241,3.838 0,1.299 0.344,2.489 1.031,3.571 0.688,1.082 1.738,1.942 3.151,2.578 1.413,0.637 3.176,0.955 5.29,0.955 1.476,0 2.927,-0.216 4.354,-0.649 1.426,-0.433 2.66,-1.019 3.704,-1.757 l -0.725,-1.566 c -1.07,0.739 -2.247,1.299 -3.533,1.68 -1.286,0.383 -2.553,0.574 -3.8,0.574 -2.47,0 -4.342,-0.497 -5.615,-1.49 -1.273,-0.993 -1.91,-2.279 -1.91,-3.857 0,-1.198 0.344,-2.152 1.032,-2.865 0.687,-0.713 1.541,-1.26 2.559,-1.642 1.018,-0.382 2.406,-0.79 4.163,-1.222 1.96,-0.485 3.527,-0.956 4.697,-1.414 1.171,-0.458 2.171,-1.152 2.999,-2.082 C 14.806,8.886 15.221,7.632 15.221,6.054 15.221,4.755 14.87,3.571 14.17,2.501 13.47,1.432 12.394,0.579 10.942,-0.058 9.491,-0.694 7.709,-1.012 5.596,-1.012 3.635,-1.012 1.77,-0.675 0,0" /></g><g
           transform="translate(437.8594,201.4346)"
           id="g62"><path
             id="path64"
             style="fill:#000000;fill-opacity:1;fill-rule:nonzero;stroke:none"
             d="M 0,0 H -9.625 V 1.757 H 11.573 V 0 H 1.948 V -24.979 H 0 Z" /></g><g
           transform="translate(463.8311,186.9209)"
           id="g66"><path
             id="path68"
             style="fill:#000000;fill-opacity:1;fill-rule:nonzero;stroke:none"
             d="m 0,0 c 2.852,0 5.028,0.63 6.531,1.891 1.502,1.26 2.254,3.049 2.254,5.366 0,2.317 -0.752,4.106 -2.254,5.366 C 5.028,13.884 2.852,14.514 0,14.514 H -7.639 V 0 Z M 8.976,-10.465 2.598,-1.527 C 1.655,-1.655 0.789,-1.718 0,-1.718 h -7.639 v -8.747 H -9.587 V 16.271 H 0 c 3.361,0 5.997,-0.796 7.906,-2.387 1.91,-1.592 2.865,-3.801 2.865,-6.627 0,-2.114 -0.542,-3.89 -1.624,-5.328 C 8.065,0.49 6.519,-0.522 4.507,-1.107 l 6.684,-9.358 z" /></g><g
           transform="translate(484.3213,179.2061)"
           id="g70"><path
             id="path72"
             style="fill:#000000;fill-opacity:1;fill-rule:nonzero;stroke:none"
             d="m 0,0 c -1.871,1.96 -2.807,4.825 -2.807,8.594 v 15.392 h 1.948 V 8.67 c 0,-3.285 0.751,-5.742 2.254,-7.372 1.501,-1.629 3.678,-2.444 6.531,-2.444 2.826,0 4.99,0.815 6.493,2.444 1.502,1.63 2.253,4.087 2.253,7.372 V 23.986 H 18.62 V 8.594 C 18.62,4.825 17.678,1.96 15.794,0 13.909,-1.961 11.273,-2.941 7.888,-2.941 4.501,-2.941 1.872,-1.961 0,0" /></g><g
           transform="translate(516.251,178.022)"
           id="g74"><path
             id="path76"
             style="fill:#000000;fill-opacity:1;fill-rule:nonzero;stroke:none"
             d="m 0,0 c -2.101,1.171 -3.756,2.788 -4.965,4.851 -1.21,2.062 -1.814,4.379 -1.814,6.951 0,2.572 0.604,4.889 1.814,6.951 1.209,2.062 2.864,3.679 4.965,4.851 2.101,1.17 4.462,1.757 7.085,1.757 1.935,0 3.718,-0.313 5.348,-0.936 1.629,-0.624 3.016,-1.547 4.163,-2.769 l -1.223,-1.26 c -2.139,2.113 -4.876,3.169 -8.212,3.169 -2.24,0 -4.277,-0.509 -6.11,-1.527 -1.834,-1.019 -3.273,-2.426 -4.317,-4.221 -1.044,-1.795 -1.565,-3.8 -1.565,-6.015 0,-2.216 0.521,-4.22 1.565,-6.015 1.044,-1.796 2.483,-3.203 4.317,-4.221 1.833,-1.019 3.87,-1.528 6.11,-1.528 3.311,0 6.048,1.069 8.212,3.209 L 16.596,1.986 C 15.449,0.764 14.056,-0.166 12.413,-0.802 10.771,-1.439 8.995,-1.757 7.085,-1.757 4.462,-1.757 2.101,-1.171 0,0" /></g><g
           transform="translate(543.0244,178.022)"
           id="g78"><path
             id="path80"
             style="fill:#000000;fill-opacity:1;fill-rule:nonzero;stroke:none"
             d="m 0,0 c -2.101,1.171 -3.756,2.788 -4.965,4.851 -1.21,2.062 -1.814,4.379 -1.814,6.951 0,2.572 0.604,4.889 1.814,6.951 1.209,2.062 2.864,3.679 4.965,4.851 2.101,1.17 4.462,1.757 7.085,1.757 1.935,0 3.718,-0.313 5.348,-0.936 1.629,-0.624 3.016,-1.547 4.163,-2.769 l -1.223,-1.26 c -2.139,2.113 -4.876,3.169 -8.212,3.169 -2.24,0 -4.277,-0.509 -6.11,-1.527 -1.834,-1.019 -3.273,-2.426 -4.317,-4.221 -1.044,-1.795 -1.565,-3.8 -1.565,-6.015 0,-2.216 0.521,-4.22 1.565,-6.015 1.044,-1.796 2.483,-3.203 4.317,-4.221 1.833,-1.019 3.87,-1.528 6.11,-1.528 3.311,0 6.048,1.069 8.212,3.209 L 16.596,1.986 C 15.449,0.764 14.056,-0.166 12.413,-0.802 10.771,-1.439 8.995,-1.757 7.085,-1.757 4.462,-1.757 2.101,-1.171 0,0" /></g><path
           id="path82"
           style="fill:#000000;fill-opacity:1;fill-rule:nonzero;stroke:none"
           d="m 566.15,203.192 h 1.948 v -26.736 h -1.948 z" /><g
           transform="translate(594.834,179.5879)"
           id="g84"><path
             id="path86"
             style="fill:#000000;fill-opacity:1;fill-rule:nonzero;stroke:none"
             d="m 0,0 c 1.808,1.018 3.233,2.425 4.277,4.221 1.044,1.795 1.567,3.8 1.567,6.015 0,2.215 -0.523,4.221 -1.567,6.015 C 3.233,18.046 1.808,19.453 0,20.472 -1.809,21.49 -3.833,22 -6.073,22 c -2.24,0 -4.272,-0.51 -6.092,-1.528 -1.82,-1.019 -3.253,-2.426 -4.297,-4.221 -1.044,-1.794 -1.565,-3.8 -1.565,-6.015 0,-2.215 0.521,-4.22 1.565,-6.015 1.044,-1.796 2.477,-3.203 4.297,-4.221 1.82,-1.019 3.852,-1.528 6.092,-1.528 2.24,0 4.264,0.509 6.073,1.528 m -13.177,-1.547 c -2.114,1.184 -3.775,2.807 -4.984,4.87 -1.21,2.062 -1.815,4.366 -1.815,6.913 0,2.546 0.605,4.85 1.815,6.913 1.209,2.062 2.87,3.686 4.984,4.87 2.114,1.184 4.481,1.776 7.104,1.776 2.622,0 4.99,-0.587 7.104,-1.757 2.114,-1.172 3.775,-2.788 4.985,-4.851 1.209,-2.062 1.813,-4.379 1.813,-6.951 0,-2.572 -0.604,-4.889 -1.813,-6.951 -1.21,-2.063 -2.871,-3.68 -4.985,-4.851 -2.114,-1.171 -4.482,-1.757 -7.104,-1.757 -2.623,0 -4.99,0.592 -7.104,1.776" /></g><g
           transform="translate(631.1943,203.1919)"
           id="g88"><path
             id="path90"
             style="fill:#000000;fill-opacity:1;fill-rule:nonzero;stroke:none"
             d="m 0,0 v -26.736 h -1.604 l -18.218,23.222 v -23.222 h -1.949 V 0 h 1.643 L -1.947,-23.222 V 0 Z" /></g><g
           transform="translate(658.9609,178.2129)"
           id="g92"><path
             id="path94"
             style="fill:#000000;fill-opacity:1;fill-rule:nonzero;stroke:none"
             d="M 0,0 V -1.757 H -18.448 V 24.979 H -0.573 V 23.222 H -16.5 V 12.68 H -2.254 V 10.962 H -16.5 V 0 Z" /></g><g
           transform="translate(667.4971,177.2774)"
           id="g96"><path
             id="path98"
             style="fill:#000000;fill-opacity:1;fill-rule:nonzero;stroke:none"
             d="m 0,0 c -1.77,0.674 -3.15,1.547 -4.144,2.616 l 0.878,1.451 C -2.324,3.075 -1.057,2.266 0.535,1.642 2.126,1.018 3.801,0.707 5.558,0.707 c 2.546,0 4.468,0.483 5.766,1.451 1.299,0.967 1.948,2.228 1.948,3.781 0,1.197 -0.343,2.151 -1.031,2.865 -0.687,0.712 -1.541,1.26 -2.558,1.642 -1.02,0.382 -2.395,0.776 -4.125,1.184 -1.961,0.483 -3.534,0.954 -4.717,1.413 -1.185,0.458 -2.191,1.165 -3.018,2.12 -0.828,0.955 -1.241,2.234 -1.241,3.838 0,1.299 0.344,2.489 1.031,3.571 0.688,1.082 1.738,1.942 3.151,2.578 1.413,0.637 3.176,0.955 5.29,0.955 1.476,0 2.927,-0.216 4.354,-0.649 1.426,-0.433 2.66,-1.019 3.704,-1.757 l -0.725,-1.566 c -1.07,0.739 -2.247,1.299 -3.533,1.68 -1.286,0.383 -2.553,0.574 -3.8,0.574 -2.47,0 -4.342,-0.497 -5.615,-1.49 -1.273,-0.993 -1.91,-2.279 -1.91,-3.857 0,-1.198 0.344,-2.152 1.032,-2.865 0.687,-0.713 1.541,-1.26 2.559,-1.642 1.018,-0.382 2.406,-0.79 4.163,-1.222 1.96,-0.485 3.527,-0.956 4.697,-1.414 1.171,-0.458 2.171,-1.152 2.999,-2.082 C 14.806,8.886 15.221,7.632 15.221,6.054 15.221,4.755 14.87,3.571 14.17,2.501 13.47,1.432 12.394,0.579 10.942,-0.058 9.491,-0.694 7.709,-1.012 5.596,-1.012 3.635,-1.012 1.77,-0.675 0,0" /></g><g
           transform="translate(320.205,823.3428)"
           id="g100"><path
             id="path102"
             style="fill:#91999a;fill-opacity:1;fill-rule:nonzero;stroke:none"
             d="M 0,0 223.156,-376.516 179.517,-450.676 -86.499,-0.093 Z" /></g><g
           transform="translate(543,823.6096)"
           id="g104"><path
             id="path106"
             style="fill:#007291;fill-opacity:1;fill-rule:nonzero;stroke:none"
             d="M 0,0 -43,-74.307 H 92.633 l -179.445,-302.621 43.639,-74.087 266.467,450.998 z" /></g><g
           transform="translate(455.953,445.3024)"
           id="g108"><path
             id="path110"
             style="fill:#ffffff;fill-opacity:1;fill-rule:nonzero;stroke:none"
             d="M 0,0 43.821,74.281 87.643,0 Z" /></g></g></g></g></svg>