<svg xmlns="http://www.w3.org/2000/svg" viewBox="0 0 393.83 100"><defs><style>.a7876667-5da7-436e-aebd-6d71818960f2{fill:#fff;}</style></defs><title>LOGO STEELPLEX</title><g id="fcc8d3f6-20a3-40a5-8aca-a7a176c89590" data-name="Capa 2"><g id="ae631c01-1e66-40c3-96b5-0013547cf51e" data-name="Capa 1"><polygon class="a7876667-5da7-436e-aebd-6d71818960f2" points="269.53 78.28 281.54 72.87 281.54 2.12 263.91 2.12 263.91 14.03 269.53 14.03 269.53 78.28"/><polygon class="a7876667-5da7-436e-aebd-6d71818960f2" points="183.77 2.12 183.77 14.03 189.21 14.03 189.21 78.28 201.22 72.87 201.22 2.12 183.77 2.12"/><path class="a7876667-5da7-436e-aebd-6d71818960f2" d="M12.07,20.73c0-5.06,4.13-8.8,9.6-8.8s9.6,3.74,9.6,8.8H43.44C43.44,9,33.64,0,21.67,0,10.32,0,0,8.9,0,20.73c0,25.68,32.71,16,32.71,32.36a11,11,0,0,1-11,10.82c-5.47,0-9.6-3.84-9.6-8.8H0C0,66.44,9.7,75.74,21.67,75.74c12.28,0,23.11-9.91,23.11-22.65,0-26.9-32.71-17.39-32.71-32.36"/><path class="a7876667-5da7-436e-aebd-6d71818960f2" d="M101.17,24.25C86.85,24.25,75.43,36.38,75.43,50A25.75,25.75,0,0,0,125,59.72H111.29A14.42,14.42,0,0,1,101.17,64a13.79,13.79,0,0,1-12.72-8.32h37.87a26.31,26.31,0,0,0,.6-5.71c0-14.63-12.52-25.75-25.75-25.75m-13.12,21a14,14,0,0,1,26.25,0Z"/><path class="a7876667-5da7-436e-aebd-6d71818960f2" d="M158,24.25A26.08,26.08,0,0,0,132.27,50,26.08,26.08,0,0,0,158,75.75a25.81,25.81,0,0,0,23.85-16H168.14A14.42,14.42,0,0,1,158,64a13.79,13.79,0,0,1-12.72-8.32h37.87a26.31,26.31,0,0,0,.6-5.71c0-14.63-12.52-25.75-25.75-25.75m-13.12,21a14,14,0,0,1,26.25,0Z"/><polygon class="a7876667-5da7-436e-aebd-6d71818960f2" points="64.65 2.12 52.64 2.12 52.64 26.12 46.8 26.12 46.8 38.13 52.64 38.13 52.64 78.08 64.65 72.87 64.65 38.13 73.52 38.13 73.52 26.12 64.65 26.12 64.65 2.12"/><path class="a7876667-5da7-436e-aebd-6d71818960f2" d="M312.75,24.25A26.1,26.1,0,0,0,287,50a26.1,26.1,0,0,0,25.78,25.78,25.83,25.83,0,0,0,23.87-16.05H322.87a14.38,14.38,0,0,1-10.12,4.31A13.82,13.82,0,0,1,300,55.75h37.91a26.4,26.4,0,0,0,.6-5.72c0-14.65-12.53-25.78-25.77-25.78M299.61,45.31a14,14,0,0,1,26.27,0Z"/><polygon class="a7876667-5da7-436e-aebd-6d71818960f2" points="357.32 48.1 365.69 39.73 350.14 24.25 341.24 24.25 341.24 36.09 345.24 36.09 357.32 48.1"/><polygon class="a7876667-5da7-436e-aebd-6d71818960f2" points="350.12 75.81 350.14 75.81 367.55 58.4 384.96 75.8 384.96 75.81 393.33 75.81 393.83 75.81 393.83 63.97 389.86 63.97 375.92 50.03 389.86 36.09 393.83 36.09 393.83 24.25 384.96 24.25 384.96 24.25 367.55 41.66 354 55.21 345.24 63.97 341.24 63.97 341.24 75.81 341.77 75.81 350.12 75.81"/><path class="a7876667-5da7-436e-aebd-6d71818960f2" d="M238.24,24.35a25.28,25.28,0,0,0-16.44,6.12l-2.61-5.14H206.65V37.16h5.82V100l11.83-5.58V71.79A25.76,25.76,0,0,0,264,50.13a26.1,26.1,0,0,0-25.78-25.78m0,39.82A14,14,0,0,1,224.3,50.73v-1.1a14,14,0,0,1,28,.5,14.09,14.09,0,0,1-14,14"/></g></g></svg>