<svg width="2271" height="1859" viewBox="0 0 2271 1859" fill="none" xmlns="http://www.w3.org/2000/svg">
<g filter="url(#filter0_d_11_26)">
<path d="M379 1447V1195L509 1047L637 1177L379 1447Z" fill="#ECB365"/>
<path d="M379 1447V1195L509 1047L637 1177L379 1447Z" stroke="#ECB365"/>
</g>
<g filter="url(#filter1_d_11_26)">
<path d="M639 1175L511 1045L767 787V1045L639 1175Z" fill="#064663"/>
<path d="M639 1175L511 1045L767 787V1045L639 1175Z" stroke="#064663"/>
</g>
<g filter="url(#filter2_d_11_26)">
<path d="M379 1045V399L687 725L379 1045Z" fill="#ECB365"/>
<path d="M379 1045V399L687 725L379 1045Z" stroke="#ECB365"/>
</g>
<g filter="url(#filter3_d_11_26)">
<path d="M1491 807V901L1765 1175L1893 1043V383L1491 807Z" fill="#041C32"/>
<path d="M1491 807V901L1765 1175L1893 1043V383L1491 807Z" stroke="#041C32"/>
</g>
<g filter="url(#filter4_d_11_26)">
<path d="M1491 895V1455L1767 1173L1491 895Z" fill="#ECB365"/>
<path d="M1491 895V1455L1767 1173L1491 895Z" stroke="#ECB365"/>
</g>
<g filter="url(#filter5_d_11_26)">
<path d="M739 219H395L1137 1043V661L739 219Z" fill="#064663"/>
<path d="M739 219H395L1137 1043V661L739 219Z" stroke="#064663"/>
</g>
<g filter="url(#filter6_d_11_26)">
<path d="M1139 661C1140.33 780.333 1142.2 1024.2 1139 1045L1893 267V215H1561L1139 661Z" fill="#041C32"/>
<path d="M1139 661C1140.33 780.333 1142.2 1024.2 1139 1045L1893 267V215H1561L1139 661Z" stroke="#041C32"/>
</g>
<path d="M161.433 1698V1589.6L114.633 1673H103.633L56.6328 1589.6V1698H38.6328V1556H57.6328L109.033 1648.2L160.633 1556H179.433V1698H161.433ZM213.438 1698V1556H262.638C277.838 1556 290.504 1559.2 300.638 1565.6C310.904 1571.87 318.571 1580.4 323.638 1591.2C328.704 1601.87 331.238 1613.73 331.238 1626.8C331.238 1641.2 328.438 1653.73 322.838 1664.4C317.238 1675.07 309.304 1683.33 299.038 1689.2C288.771 1695.07 276.638 1698 262.638 1698H213.438ZM313.038 1626.8C313.038 1616.13 311.038 1606.67 307.038 1598.4C303.171 1590.13 297.504 1583.67 290.038 1579C282.571 1574.33 273.438 1572 262.638 1572H231.438V1682H262.638C273.571 1682 282.771 1679.6 290.238 1674.8C297.704 1669.87 303.371 1663.27 307.238 1655C311.104 1646.6 313.038 1637.2 313.038 1626.8ZM355.328 1556L402.328 1675.4L449.128 1556H468.128L410.528 1698H394.128L336.328 1556H355.328ZM530.416 1724V1543H545.616V1724H530.416ZM620.448 1626C620.448 1617.33 621.915 1608.87 624.848 1600.6C627.915 1592.2 632.315 1584.6 638.048 1577.8C643.915 1570.87 651.048 1565.4 659.448 1561.4C667.848 1557.27 677.382 1555.2 688.048 1555.2C700.715 1555.2 711.582 1558.13 720.648 1564C729.715 1569.73 736.448 1577.13 740.848 1586.2L726.648 1595.4C723.848 1589.4 720.248 1584.67 715.848 1581.2C711.582 1577.6 706.915 1575.07 701.848 1573.6C696.915 1572.13 692.048 1571.4 687.248 1571.4C679.382 1571.4 672.382 1573 666.248 1576.2C660.248 1579.4 655.182 1583.67 651.048 1589C646.915 1594.33 643.782 1600.33 641.648 1607C639.648 1613.53 638.648 1620.13 638.648 1626.8C638.648 1634.13 639.848 1641.2 642.248 1648C644.782 1654.8 648.248 1660.8 652.648 1666C657.048 1671.2 662.248 1675.33 668.248 1678.4C674.248 1681.47 680.782 1683 687.848 1683C692.782 1683 697.848 1682.13 703.048 1680.4C708.248 1678.67 713.115 1676 717.648 1672.4C722.182 1668.67 725.782 1663.87 728.448 1658L743.448 1666.2C740.515 1673.27 735.982 1679.27 729.848 1684.2C723.715 1689.13 716.848 1692.87 709.248 1695.4C701.782 1697.93 694.382 1699.2 687.048 1699.2C677.315 1699.2 668.382 1697.13 660.248 1693C652.115 1688.73 645.048 1683.13 639.048 1676.2C633.182 1669.13 628.582 1661.27 625.248 1652.6C622.048 1643.8 620.448 1634.93 620.448 1626ZM822.014 1699C812.014 1699 802.947 1697 794.814 1693C786.681 1689 779.614 1683.6 773.614 1676.8C767.747 1669.87 763.214 1662.13 760.014 1653.6C756.814 1644.93 755.214 1636.07 755.214 1627C755.214 1617.53 756.881 1608.53 760.214 1600C763.681 1591.33 768.414 1583.67 774.414 1577C780.547 1570.2 787.681 1564.87 795.814 1561C803.947 1557 812.814 1555 822.414 1555C832.414 1555 841.481 1557.07 849.614 1561.2C857.747 1565.33 864.747 1570.87 870.614 1577.8C876.481 1584.73 881.014 1592.47 884.214 1601C887.414 1609.53 889.014 1618.27 889.014 1627.2C889.014 1636.67 887.347 1645.73 884.014 1654.4C880.681 1662.93 875.947 1670.6 869.814 1677.4C863.814 1684.07 856.747 1689.33 848.614 1693.2C840.481 1697.07 831.614 1699 822.014 1699ZM773.414 1627C773.414 1634.2 774.547 1641.2 776.814 1648C779.214 1654.67 782.547 1660.6 786.814 1665.8C791.081 1671 796.214 1675.13 802.214 1678.2C808.214 1681.27 814.881 1682.8 822.214 1682.8C829.814 1682.8 836.614 1681.2 842.614 1678C848.614 1674.8 853.681 1670.53 857.814 1665.2C862.081 1659.87 865.281 1653.87 867.414 1647.2C869.681 1640.53 870.814 1633.8 870.814 1627C870.814 1619.8 869.614 1612.87 867.214 1606.2C864.947 1599.53 861.614 1593.6 857.214 1588.4C852.947 1583.07 847.814 1578.93 841.814 1576C835.947 1572.93 829.414 1571.4 822.214 1571.4C814.614 1571.4 807.814 1573 801.814 1576.2C795.814 1579.27 790.681 1583.47 786.414 1588.8C782.281 1594.13 779.081 1600.13 776.814 1606.8C774.547 1613.33 773.414 1620.07 773.414 1627ZM932.023 1589.2V1698H914.023V1556H929.223L1016.02 1667V1556.2H1034.02V1698H1017.62L932.023 1589.2ZM1151.33 1585.8C1149.73 1583.93 1147.6 1582.13 1144.93 1580.4C1142.26 1578.67 1139.26 1577.13 1135.93 1575.8C1132.6 1574.33 1128.93 1573.2 1124.93 1572.4C1121.06 1571.47 1117 1571 1112.73 1571C1101.8 1571 1093.73 1573.07 1088.53 1577.2C1083.33 1581.33 1080.73 1587 1080.73 1594.2C1080.73 1599.27 1082.06 1603.27 1084.73 1606.2C1087.4 1609.13 1091.46 1611.53 1096.93 1613.4C1102.53 1615.27 1109.6 1617.2 1118.13 1619.2C1128 1621.33 1136.53 1623.93 1143.73 1627C1150.93 1630.07 1156.46 1634.2 1160.33 1639.4C1164.2 1644.47 1166.13 1651.27 1166.13 1659.8C1166.13 1666.6 1164.8 1672.53 1162.13 1677.6C1159.6 1682.53 1156 1686.67 1151.33 1690C1146.66 1693.2 1141.2 1695.6 1134.93 1697.2C1128.66 1698.67 1121.86 1699.4 1114.53 1699.4C1107.33 1699.4 1100.26 1698.67 1093.33 1697.2C1086.53 1695.6 1080.06 1693.33 1073.93 1690.4C1067.8 1687.47 1062.06 1683.8 1056.73 1679.4L1065.33 1664.2C1067.46 1666.47 1070.2 1668.73 1073.53 1671C1077 1673.13 1080.86 1675.13 1085.13 1677C1089.53 1678.87 1094.26 1680.4 1099.33 1681.6C1104.4 1682.67 1109.6 1683.2 1114.93 1683.2C1125.06 1683.2 1132.93 1681.4 1138.53 1677.8C1144.13 1674.07 1146.93 1668.67 1146.93 1661.6C1146.93 1656.27 1145.33 1652 1142.13 1648.8C1139.06 1645.6 1134.46 1642.93 1128.33 1640.8C1122.2 1638.67 1114.73 1636.53 1105.93 1634.4C1096.33 1632 1088.26 1629.4 1081.73 1626.6C1075.2 1623.67 1070.26 1619.87 1066.93 1615.2C1063.73 1610.53 1062.13 1604.47 1062.13 1597C1062.13 1587.93 1064.33 1580.27 1068.73 1574C1073.13 1567.73 1079.2 1563 1086.93 1559.8C1094.66 1556.6 1103.4 1555 1113.13 1555C1119.53 1555 1125.46 1555.67 1130.93 1557C1136.53 1558.33 1141.73 1560.2 1146.53 1562.6C1151.33 1565 1155.73 1567.87 1159.73 1571.2L1151.33 1585.8ZM1292.2 1572H1243.2V1698H1225.2V1572H1176.2V1556H1292.2V1572ZM1312.66 1698V1556H1373.46C1379.72 1556 1385.46 1557.33 1390.66 1560C1395.86 1562.53 1400.39 1566 1404.26 1570.4C1408.12 1574.67 1411.12 1579.53 1413.26 1585C1415.39 1590.33 1416.46 1595.8 1416.46 1601.4C1416.46 1607.93 1415.19 1614.13 1412.66 1620C1410.26 1625.87 1406.79 1630.87 1402.26 1635C1397.86 1639.13 1392.66 1642 1386.66 1643.6L1421.06 1698H1400.66L1368.26 1647H1330.66V1698H1312.66ZM1330.66 1631H1373.66C1378.59 1631 1382.86 1629.67 1386.46 1627C1390.19 1624.2 1393.06 1620.53 1395.06 1616C1397.19 1611.47 1398.26 1606.6 1398.26 1601.4C1398.26 1596.07 1397.06 1591.2 1394.66 1586.8C1392.26 1582.27 1389.12 1578.67 1385.26 1576C1381.39 1573.33 1377.12 1572 1372.46 1572H1330.66V1631ZM1502.7 1699C1491.37 1699 1481.83 1697.07 1474.1 1693.2C1466.37 1689.2 1460.17 1683.87 1455.5 1677.2C1450.83 1670.4 1447.43 1662.73 1445.3 1654.2C1443.17 1645.67 1442.1 1636.87 1442.1 1627.8V1556H1460.1V1627.8C1460.1 1634.73 1460.77 1641.53 1462.1 1648.2C1463.57 1654.73 1465.9 1660.6 1469.1 1665.8C1472.3 1671 1476.63 1675.13 1482.1 1678.2C1487.57 1681.27 1494.37 1682.8 1502.5 1682.8C1510.77 1682.8 1517.63 1681.27 1523.1 1678.2C1528.57 1675 1532.9 1670.8 1536.1 1665.6C1539.3 1660.27 1541.57 1654.33 1542.9 1647.8C1544.37 1641.27 1545.1 1634.6 1545.1 1627.8V1556H1563.1V1627.8C1563.1 1637.4 1561.97 1646.53 1559.7 1655.2C1557.57 1663.73 1554.1 1671.27 1549.3 1677.8C1544.5 1684.33 1538.23 1689.53 1530.5 1693.4C1522.9 1697.13 1513.63 1699 1502.7 1699ZM1585.88 1626C1585.88 1617.33 1587.34 1608.87 1590.28 1600.6C1593.34 1592.2 1597.74 1584.6 1603.48 1577.8C1609.34 1570.87 1616.48 1565.4 1624.88 1561.4C1633.28 1557.27 1642.81 1555.2 1653.48 1555.2C1666.14 1555.2 1677.01 1558.13 1686.08 1564C1695.14 1569.73 1701.88 1577.13 1706.28 1586.2L1692.08 1595.4C1689.28 1589.4 1685.68 1584.67 1681.28 1581.2C1677.01 1577.6 1672.34 1575.07 1667.28 1573.6C1662.34 1572.13 1657.48 1571.4 1652.68 1571.4C1644.81 1571.4 1637.81 1573 1631.68 1576.2C1625.68 1579.4 1620.61 1583.67 1616.48 1589C1612.34 1594.33 1609.21 1600.33 1607.08 1607C1605.08 1613.53 1604.08 1620.13 1604.08 1626.8C1604.08 1634.13 1605.28 1641.2 1607.68 1648C1610.21 1654.8 1613.68 1660.8 1618.08 1666C1622.48 1671.2 1627.68 1675.33 1633.68 1678.4C1639.68 1681.47 1646.21 1683 1653.28 1683C1658.21 1683 1663.28 1682.13 1668.48 1680.4C1673.68 1678.67 1678.54 1676 1683.08 1672.4C1687.61 1668.67 1691.21 1663.87 1693.88 1658L1708.88 1666.2C1705.94 1673.27 1701.41 1679.27 1695.28 1684.2C1689.14 1689.13 1682.28 1692.87 1674.68 1695.4C1667.21 1697.93 1659.81 1699.2 1652.48 1699.2C1642.74 1699.2 1633.81 1697.13 1625.68 1693C1617.54 1688.73 1610.48 1683.13 1604.48 1676.2C1598.61 1669.13 1594.01 1661.27 1590.68 1652.6C1587.48 1643.8 1585.88 1634.93 1585.88 1626ZM1833.81 1572H1784.81V1698H1766.81V1572H1717.81V1556H1833.81V1572ZM1907.56 1699C1897.56 1699 1888.49 1697 1880.36 1693C1872.23 1689 1865.16 1683.6 1859.16 1676.8C1853.29 1669.87 1848.76 1662.13 1845.56 1653.6C1842.36 1644.93 1840.76 1636.07 1840.76 1627C1840.76 1617.53 1842.43 1608.53 1845.76 1600C1849.23 1591.33 1853.96 1583.67 1859.96 1577C1866.09 1570.2 1873.23 1564.87 1881.36 1561C1889.49 1557 1898.36 1555 1907.96 1555C1917.96 1555 1927.03 1557.07 1935.16 1561.2C1943.29 1565.33 1950.29 1570.87 1956.16 1577.8C1962.03 1584.73 1966.56 1592.47 1969.76 1601C1972.96 1609.53 1974.56 1618.27 1974.56 1627.2C1974.56 1636.67 1972.89 1645.73 1969.56 1654.4C1966.23 1662.93 1961.49 1670.6 1955.36 1677.4C1949.36 1684.07 1942.29 1689.33 1934.16 1693.2C1926.03 1697.07 1917.16 1699 1907.56 1699ZM1858.96 1627C1858.96 1634.2 1860.09 1641.2 1862.36 1648C1864.76 1654.67 1868.09 1660.6 1872.36 1665.8C1876.63 1671 1881.76 1675.13 1887.76 1678.2C1893.76 1681.27 1900.43 1682.8 1907.76 1682.8C1915.36 1682.8 1922.16 1681.2 1928.16 1678C1934.16 1674.8 1939.23 1670.53 1943.36 1665.2C1947.63 1659.87 1950.83 1653.87 1952.96 1647.2C1955.23 1640.53 1956.36 1633.8 1956.36 1627C1956.36 1619.8 1955.16 1612.87 1952.76 1606.2C1950.49 1599.53 1947.16 1593.6 1942.76 1588.4C1938.49 1583.07 1933.36 1578.93 1927.36 1576C1921.49 1572.93 1914.96 1571.4 1907.76 1571.4C1900.16 1571.4 1893.36 1573 1887.36 1576.2C1881.36 1579.27 1876.23 1583.47 1871.96 1588.8C1867.83 1594.13 1864.63 1600.13 1862.36 1606.8C1860.09 1613.33 1858.96 1620.07 1858.96 1627ZM1999.57 1698V1556H2060.37C2066.64 1556 2072.37 1557.33 2077.57 1560C2082.77 1562.53 2087.3 1566 2091.17 1570.4C2095.04 1574.67 2098.04 1579.53 2100.17 1585C2102.3 1590.33 2103.37 1595.8 2103.37 1601.4C2103.37 1607.93 2102.1 1614.13 2099.57 1620C2097.17 1625.87 2093.7 1630.87 2089.17 1635C2084.77 1639.13 2079.57 1642 2073.57 1643.6L2107.97 1698H2087.57L2055.17 1647H2017.57V1698H1999.57ZM2017.57 1631H2060.57C2065.5 1631 2069.77 1629.67 2073.37 1627C2077.1 1624.2 2079.97 1620.53 2081.97 1616C2084.1 1611.47 2085.17 1606.6 2085.17 1601.4C2085.17 1596.07 2083.97 1591.2 2081.57 1586.8C2079.17 1582.27 2076.04 1578.67 2072.17 1576C2068.3 1573.33 2064.04 1572 2059.37 1572H2017.57V1631ZM2174.22 1556H2189.42L2247.42 1698H2228.22L2211.42 1656.4H2151.82L2135.22 1698H2116.02L2174.22 1556ZM2207.42 1642.4L2181.82 1576.8L2155.42 1642.4H2207.42Z" fill="#041C32"/>
<defs>
<filter id="filter0_d_11_26" x="374.5" y="1046.27" width="267.196" height="409.981" filterUnits="userSpaceOnUse" color-interpolation-filters="sRGB">
<feFlood flood-opacity="0" result="BackgroundImageFix"/>
<feColorMatrix in="SourceAlpha" type="matrix" values="0 0 0 0 0 0 0 0 0 0 0 0 0 0 0 0 0 0 127 0" result="hardAlpha"/>
<feOffset dy="4"/>
<feGaussianBlur stdDeviation="2"/>
<feComposite in2="hardAlpha" operator="out"/>
<feColorMatrix type="matrix" values="0 0 0 0 0 0 0 0 0 0 0 0 0 0 0 0 0 0 0.25 0"/>
<feBlend mode="normal" in2="BackgroundImageFix" result="effect1_dropShadow_11_26"/>
<feBlend mode="normal" in="SourceGraphic" in2="effect1_dropShadow_11_26" result="shape"/>
</filter>
<filter id="filter1_d_11_26" x="506.297" y="785.786" width="265.203" height="397.926" filterUnits="userSpaceOnUse" color-interpolation-filters="sRGB">
<feFlood flood-opacity="0" result="BackgroundImageFix"/>
<feColorMatrix in="SourceAlpha" type="matrix" values="0 0 0 0 0 0 0 0 0 0 0 0 0 0 0 0 0 0 127 0" result="hardAlpha"/>
<feOffset dy="4"/>
<feGaussianBlur stdDeviation="2"/>
<feComposite in2="hardAlpha" operator="out"/>
<feColorMatrix type="matrix" values="0 0 0 0 0 0 0 0 0 0 0 0 0 0 0 0 0 0 0.25 0"/>
<feBlend mode="normal" in2="BackgroundImageFix" result="effect1_dropShadow_11_26"/>
<feBlend mode="normal" in="SourceGraphic" in2="effect1_dropShadow_11_26" result="shape"/>
</filter>
<filter id="filter2_d_11_26" x="374.5" y="397.743" width="317.19" height="656.498" filterUnits="userSpaceOnUse" color-interpolation-filters="sRGB">
<feFlood flood-opacity="0" result="BackgroundImageFix"/>
<feColorMatrix in="SourceAlpha" type="matrix" values="0 0 0 0 0 0 0 0 0 0 0 0 0 0 0 0 0 0 127 0" result="hardAlpha"/>
<feOffset dy="4"/>
<feGaussianBlur stdDeviation="2"/>
<feComposite in2="hardAlpha" operator="out"/>
<feColorMatrix type="matrix" values="0 0 0 0 0 0 0 0 0 0 0 0 0 0 0 0 0 0 0.25 0"/>
<feBlend mode="normal" in2="BackgroundImageFix" result="effect1_dropShadow_11_26"/>
<feBlend mode="normal" in="SourceGraphic" in2="effect1_dropShadow_11_26" result="shape"/>
</filter>
<filter id="filter3_d_11_26" x="1486.5" y="381.746" width="411" height="801.967" filterUnits="userSpaceOnUse" color-interpolation-filters="sRGB">
<feFlood flood-opacity="0" result="BackgroundImageFix"/>
<feColorMatrix in="SourceAlpha" type="matrix" values="0 0 0 0 0 0 0 0 0 0 0 0 0 0 0 0 0 0 127 0" result="hardAlpha"/>
<feOffset dy="4"/>
<feGaussianBlur stdDeviation="2"/>
<feComposite in2="hardAlpha" operator="out"/>
<feColorMatrix type="matrix" values="0 0 0 0 0 0 0 0 0 0 0 0 0 0 0 0 0 0 0.25 0"/>
<feBlend mode="normal" in2="BackgroundImageFix" result="effect1_dropShadow_11_26"/>
<feBlend mode="normal" in="SourceGraphic" in2="effect1_dropShadow_11_26" result="shape"/>
</filter>
<filter id="filter4_d_11_26" x="1486.5" y="893.787" width="285.202" height="570.439" filterUnits="userSpaceOnUse" color-interpolation-filters="sRGB">
<feFlood flood-opacity="0" result="BackgroundImageFix"/>
<feColorMatrix in="SourceAlpha" type="matrix" values="0 0 0 0 0 0 0 0 0 0 0 0 0 0 0 0 0 0 127 0" result="hardAlpha"/>
<feOffset dy="4"/>
<feGaussianBlur stdDeviation="2"/>
<feComposite in2="hardAlpha" operator="out"/>
<feColorMatrix type="matrix" values="0 0 0 0 0 0 0 0 0 0 0 0 0 0 0 0 0 0 0.25 0"/>
<feBlend mode="normal" in2="BackgroundImageFix" result="effect1_dropShadow_11_26"/>
<feBlend mode="normal" in="SourceGraphic" in2="effect1_dropShadow_11_26" result="shape"/>
</filter>
<filter id="filter5_d_11_26" x="389.877" y="218.5" width="751.623" height="833.802" filterUnits="userSpaceOnUse" color-interpolation-filters="sRGB">
<feFlood flood-opacity="0" result="BackgroundImageFix"/>
<feColorMatrix in="SourceAlpha" type="matrix" values="0 0 0 0 0 0 0 0 0 0 0 0 0 0 0 0 0 0 127 0" result="hardAlpha"/>
<feOffset dy="4"/>
<feGaussianBlur stdDeviation="2"/>
<feComposite in2="hardAlpha" operator="out"/>
<feColorMatrix type="matrix" values="0 0 0 0 0 0 0 0 0 0 0 0 0 0 0 0 0 0 0.25 0"/>
<feBlend mode="normal" in2="BackgroundImageFix" result="effect1_dropShadow_11_26"/>
<feBlend mode="normal" in="SourceGraphic" in2="effect1_dropShadow_11_26" result="shape"/>
</filter>
<filter id="filter6_d_11_26" x="1134.27" y="214.5" width="763.232" height="839.974" filterUnits="userSpaceOnUse" color-interpolation-filters="sRGB">
<feFlood flood-opacity="0" result="BackgroundImageFix"/>
<feColorMatrix in="SourceAlpha" type="matrix" values="0 0 0 0 0 0 0 0 0 0 0 0 0 0 0 0 0 0 127 0" result="hardAlpha"/>
<feOffset dy="4"/>
<feGaussianBlur stdDeviation="2"/>
<feComposite in2="hardAlpha" operator="out"/>
<feColorMatrix type="matrix" values="0 0 0 0 0 0 0 0 0 0 0 0 0 0 0 0 0 0 0.25 0"/>
<feBlend mode="normal" in2="BackgroundImageFix" result="effect1_dropShadow_11_26"/>
<feBlend mode="normal" in="SourceGraphic" in2="effect1_dropShadow_11_26" result="shape"/>
</filter>
</defs>
</svg>
